<?xml version="1.0" encoding="UTF-8" standalone="no"?>
<svg
   xmlns:dc="http://purl.org/dc/elements/1.1/"
   xmlns:cc="http://creativecommons.org/ns#"
   xmlns:rdf="http://www.w3.org/1999/02/22-rdf-syntax-ns#"
   xmlns:svg="http://www.w3.org/2000/svg"
   xmlns="http://www.w3.org/2000/svg"
   id="svg13242"
   version="1.1"
   viewBox="0 0 20 13.582555"
   height="13.582555mm"
   width="20mm">
  <defs
     id="defs13236" />
  <metadata
     id="metadata13239">
    <rdf:RDF>
      <cc:Work
         rdf:about="">
        <dc:format>image/svg+xml</dc:format>
        <dc:type
           rdf:resource="http://purl.org/dc/dcmitype/StillImage" />
        <dc:title></dc:title>
      </cc:Work>
    </rdf:RDF>
  </metadata>
  <g
     transform="translate(-35.357143,-54.351579)"
     id="layer1">
    <g
       transform="matrix(1.9937695,0,0,1.9937695,35.232532,67.155318)"
       style="fill:#000000;fill-opacity:1"
       id="use23468">
      <path
         id="path40449"
         d="m 5.265625,-3.46875 c 0.00781,0 0.035156,0 0.078125,0 C 5.4375,-3.5 5.515625,-3.515625 5.578125,-3.515625 c 0.070313,0 0.164063,-0.015625 0.28125,-0.046875 l 0.5,-0.046875 V -3.65625 C 6.347656,-3.6875 6.34375,-3.710938 6.34375,-3.734375 6.34375,-3.753906 6.328125,-3.78125 6.296875,-3.8125 6.273438,-3.84375 6.257812,-3.910156 6.25,-4.015625 c 0,-0.03125 -0.00781,-0.054687 -0.015625,-0.078125 0.019531,-0.00781 0.035156,-0.023438 0.046875,-0.046875 0.019531,-0.019531 0.046875,-0.03125 0.078125,-0.03125 0.00781,0 0.019531,0.00781 0.03125,0.015625 0.019531,0.011719 0.0625,0.015625 0.125,0.015625 0.03125,-0.00781 0.070313,-0.015625 0.125,-0.015625 0.03125,0.011719 0.070313,0.015625 0.125,0.015625 H 6.8125 C 6.82031,-4.222656 6.828125,-4.300781 6.828125,-4.375 c 0,-0.070312 -0.00781,-0.144531 -0.015625,-0.21875 0,-0.070312 0,-0.125 0,-0.15625 0,-0.019531 -0.00781,-0.035156 -0.015625,-0.046875 0,0 0,-0.00391 0,-0.015625 l -0.25,0.046875 C 6.523438,-4.773438 6.5,-4.78125 6.46875,-4.78125 6.414062,-4.769531 6.347656,-4.757812 6.265625,-4.75 6.253906,-4.769531 6.238281,-4.785156 6.21875,-4.796875 6.195312,-4.804688 6.1875,-4.820312 6.1875,-4.84375 c 0,-0.00781 0,-0.015625 0,-0.015625 0,-0.00781 -0.00781,-0.015625 -0.015625,-0.015625 0,-0.03125 0.00391,-0.0625 0.015625,-0.09375 C 6.207031,-5 6.222656,-5.050781 6.234375,-5.125 c 0,-0.039062 0.00781,-0.09375 0.03125,-0.15625 0,-0.0625 0,-0.097656 0,-0.109375 0.00781,-0.00781 0.015625,-0.019531 0.015625,-0.03125 H 6.21875 C 6.175781,-5.410156 6.125,-5.40625 6.0625,-5.40625 c -0.136719,0 -0.289062,0.03125 -0.453125,0.09375 -0.054687,0.023438 -0.117187,0.039062 -0.1875,0.046875 -0.03125,0 -0.0625,0.00781 -0.09375,0.015625 -0.03125,0 -0.074219,0 -0.125,0 -0.09375,0 -0.15625,0.011719 -0.1875,0.03125 0.082031,0.074219 0.164063,0.195312 0.25,0.359375 0,0.011719 0.00781,0.054687 0.03125,0.125 v 0.03125 H 5.28125 C 5.25,-4.679688 5.210938,-4.664062 5.171875,-4.65625 c -0.03125,0 -0.105469,0.015625 -0.21875,0.046875 -0.085937,0.042969 -0.132813,0.0625 -0.140625,0.0625 L 4.78125,-4.5625 c -0.011719,0 -0.023438,0.011719 -0.03125,0.03125 0.00781,0.023438 0.019531,0.121094 0.03125,0.296875 0,0.117187 0.00391,0.195313 0.015625,0.234375 C 4.828125,-4.019531 4.863281,-4.035156 4.90625,-4.046875 4.945312,-4.054688 5,-4.082031 5.0625,-4.125 c 0.070312,-0.039062 0.128906,-0.0625 0.171875,-0.0625 0.050781,0 0.085937,0.011719 0.109375,0.03125 0.019531,0.023438 0.035156,0.039062 0.046875,0.046875 0,0.042969 -0.00781,0.078125 -0.015625,0.109375 -0.011719,0.023438 -0.015625,0.054688 -0.015625,0.09375 -0.023437,0.023438 -0.03125,0.03125 -0.03125,0.03125 0,0.011719 0,0.023438 0,0.03125 0.00781,0.011719 0.015625,0.027344 0.015625,0.046875 -0.054688,0.09375 -0.078125,0.203125 -0.078125,0.328125 z m 3.59375,1 z M 3.3125,0.390625 H 3.296875 C 3.273438,0.378906 3.253906,0.363281 3.234375,0.34375 3.210938,0.320312 3.195312,0.304688 3.1875,0.296875 2.9375,0.179688 2.785156,0.0625 2.734375,-0.0625 V -0.140625 C 2.722656,-0.191406 2.71875,-0.238281 2.71875,-0.28125 c 0,-0.0625 0.00391,-0.117188 0.015625,-0.171875 0.019531,-0.0625 0.03125,-0.140625 0.03125,-0.234375 L 2.84375,-0.75 c 0.082031,-0.070312 0.175781,-0.113281 0.28125,-0.125 0.03125,0 0.070312,-0.007812 0.125,-0.03125 0.0625,-0.019531 0.109375,-0.03125 0.140625,-0.03125 0.101563,-0.03125 0.1875,-0.070312 0.25,-0.125 0.082031,-0.039062 0.15625,-0.078125 0.21875,-0.109375 C 3.972656,-1.210938 4.050781,-1.25 4.09375,-1.28125 c 0.00781,-0.019531 0.023438,-0.035156 0.046875,-0.046875 0,-0.019531 0.00391,-0.046875 0.015625,-0.078125 0.00781,-0.0625 0.019531,-0.097656 0.03125,-0.109375 l -0.015625,-0.0625 C 4.222656,-1.765625 4.25,-1.898438 4.25,-1.984375 c 0,-0.082031 0.015625,-0.164063 0.046875,-0.25 0,-0.019531 -0.011719,-0.039063 -0.03125,-0.0625 C 4.253906,-2.328125 4.25,-2.351562 4.25,-2.375 c 0,-0.113281 0,-0.175781 0,-0.1875 0.00781,-0.019531 0.015625,-0.035156 0.015625,-0.046875 0,-0.0625 -0.03125,-0.160156 -0.09375,-0.296875 0,-0.019531 -0.011719,-0.035156 -0.03125,-0.046875 C 4.128906,-2.960938 4.101562,-2.992188 4.0625,-3.046875 4.03125,-3.097656 3.945312,-3.128906 3.8125,-3.140625 L 3.5625,-3.125 c -0.15625,0 -0.265625,-0.00391 -0.328125,-0.015625 H 3.15625 C 3.132812,-3.140625 3.101562,-3.15625 3.0625,-3.1875 3,-3.238281 2.960938,-3.28125 2.953125,-3.3125 l -0.0625,-0.15625 H 2.78125 C 2.769531,-3.457031 2.707031,-3.453125 2.59375,-3.453125 2.445312,-3.441406 2.351562,-3.4375 2.3125,-3.4375 H 2.140625 C 2.097656,-3.425781 1.976562,-3.421875 1.78125,-3.421875 1.675781,-3.421875 1.601562,-3.445312 1.5625,-3.5 1.53125,-3.53125 1.484375,-3.554688 1.421875,-3.578125 1.378906,-3.597656 1.335938,-3.625 1.296875,-3.65625 1.265625,-3.6875 1.222656,-3.707031 1.171875,-3.71875 1.117188,-3.726562 1.054688,-3.753906 0.984375,-3.796875 0.960938,-3.816406 0.9375,-3.828125 0.90625,-3.828125 0.875,-3.859375 0.820312,-3.929688 0.75,-4.046875 0.738281,-4.054688 0.710938,-4.0625 0.671875,-4.0625 0.640625,-4.070312 0.617188,-4.097656 0.609375,-4.140625 0.566406,-4.285156 0.523438,-4.375 0.484375,-4.40625 0.441406,-4.445312 0.414062,-4.488281 0.40625,-4.53125 0.394531,-4.570312 0.367188,-4.617188 0.328125,-4.671875 0.296875,-4.722656 0.28125,-4.769531 0.28125,-4.8125 0.269531,-4.863281 0.238281,-4.910156 0.1875,-4.953125 0.101562,-5.066406 0.0625,-5.226562 0.0625,-5.4375 0.0820312,-5.457031 0.0976562,-5.472656 0.109375,-5.484375 h 0.09375 L 0.25,-5.515625 C 0.28125,-5.503906 0.316406,-5.5 0.359375,-5.5 c 0.007813,0 0.019531,-0.00391 0.03125,-0.015625 0.019531,-0.019531 0.039063,-0.03125 0.0625,-0.03125 0.03125,-0.00781 0.066406,-0.015625 0.109375,-0.015625 0.0625,0 0.132812,0 0.21875,0 0.050781,-0.00781 0.113281,-0.015625 0.1875,-0.015625 0.070312,0 0.144531,0.00781 0.21875,0.015625 0.070312,0 0.128906,-0.00391 0.171875,-0.015625 0.0625,0 0.175781,0 0.34375,0 L 1.71875,-5.59375 c 0.019531,0.011719 0.035156,0.015625 0.046875,0.015625 0.00781,0 0.03125,-0.00391 0.0625,-0.015625 0.00781,0 0.023437,0.00781 0.046875,0.015625 0.019531,0 0.09375,0 0.21875,0 H 2.125 c 0.03125,0 0.0625,0.00781 0.09375,0.015625 L 2.265625,-5.578125 C 2.335938,-5.566406 2.4375,-5.5625 2.5625,-5.5625 c 0.019531,0 0.046875,0.00781 0.078125,0.015625 0.039063,0 0.078125,0 0.109375,0 0.039062,0 0.0625,-0.019531 0.0625,-0.0625 0,-0.019531 0.00391,-0.035156 0.015625,-0.046875 0.039063,-0.039062 0.0625,-0.070312 0.0625,-0.09375 -0.023437,-0.019531 -0.03125,-0.039062 -0.03125,-0.0625 0,-0.082031 0.015625,-0.144531 0.046875,-0.1875 0.03125,-0.050781 0.117188,-0.097656 0.265625,-0.140625 0.019531,0 0.035156,0 0.046875,0 0.09375,0 0.160156,-0.00781 0.203125,-0.03125 0.40625,-0.019531 0.628906,-0.035156 0.671875,-0.046875 0,0.011719 0.00391,0.023438 0.015625,0.03125 0,-0.019531 0.00781,-0.03125 0.03125,-0.03125 0,0 0.00391,0 0.015625,0 H 4.1875 c 0.00781,-0.00781 0.050781,-0.015625 0.125,-0.015625 V -6.21875 H 4.296875 4.34375 c 0,-0.00781 0.00391,-0.015625 0.015625,-0.015625 0.019531,0 0.035156,0 0.046875,0 L 4.609375,-6.265625 4.71875,-6.25 c 0.101562,0 0.160156,-0.00391 0.171875,-0.015625 0.070313,-0.00781 0.148437,-0.015625 0.234375,-0.015625 1.007812,0.023438 1.535156,0.039062 1.578125,0.046875 0,0.011719 0.015625,0.015625 0.046875,0.015625 0.00781,0 0.015625,0 0.015625,0 H 6.78125 c 0.00781,0 0.019531,0 0.03125,0 0.019531,0 0.03125,0.00781 0.03125,0.015625 L 6.859375,-6.21875 h 0.03125 c 0.00781,0.011719 0.015625,0.015625 0.015625,0.015625 0.03125,-0.00781 0.054688,-0.015625 0.078125,-0.015625 0,0 0.00391,0 0.015625,0 0.00781,0 0.019531,0.00781 0.03125,0.015625 V -6.21875 L 7.0625,-6.234375 c 0,0.011719 0.242188,0.015625 0.734375,0.015625 L 7.8125,-6.234375 7.859375,-6.21875 c 0.050781,0 0.085937,-0.00391 0.109375,-0.015625 0.050781,-0.00781 0.148438,-0.019531 0.296875,-0.03125 0.0625,0 0.101563,0.00781 0.125,0.015625 0.019531,0.011719 0.039063,0.027344 0.0625,0.046875 C 8.535156,-6.222656 8.632812,-6.238281 8.75,-6.25 8.863281,-6.25781 8.96875,-6.273438 9.0625,-6.296875 9.101562,-6.316406 9.148438,-6.332031 9.203125,-6.34375 9.253906,-6.35156 9.300781,-6.367188 9.34375,-6.390625 c 0.00781,0 0.03125,0 0.0625,0 0.039062,0 0.09375,-0.00391 0.15625,-0.015625 0.0625,-0.00781 0.144531,-0.015625 0.25,-0.015625 l 0.03125,0.03125 c 0.019531,0 0.046875,0 0.078125,0 0.00781,0 0.019531,0 0.03125,0 0.09375,0.03125 0.140625,0.089844 0.140625,0.171875 -0.05469,0.210938 -0.07813,0.324219 -0.07813,0.34375 -0.023437,0.011719 -0.03125,0.015625 -0.03125,0.015625 0,0.03125 -0.011719,0.058594 -0.03125,0.078125 C 9.929683,-5.757812 9.910151,-5.707031 9.89062,-5.625 9.878901,-5.613281 9.867183,-5.601562 9.85937,-5.59375 9.847656,-5.582031 9.84375,-5.578125 9.84375,-5.578125 9.664062,-5.273438 9.535156,-5.101562 9.453125,-5.0625 9.410156,-5.039062 9.375,-5.007812 9.34375,-4.96875 9.320312,-4.9375 9.285156,-4.910156 9.234375,-4.890625 c -0.0625,0 -0.132813,-0.00781 -0.203125,-0.03125 C 9.019531,-4.941406 9.003906,-4.957031 8.984375,-4.96875 8.972656,-4.976562 8.953125,-5.015625 8.921875,-5.078125 8.898438,-5.148438 8.882812,-5.191406 8.875,-5.203125 c -0.03125,0 -0.089844,0.015625 -0.171875,0.046875 -0.085937,0.03125 -0.125,0.089844 -0.125,0.171875 0,0.074219 0,0.140625 0,0.203125 0.00781,0.0625 0.019531,0.136719 0.03125,0.21875 0,0.074219 -0.00781,0.117188 -0.015625,0.125 0,0 0,0.00781 0,0.015625 0.00781,0.023437 0.015625,0.03125 0.015625,0.03125 0,0.0625 -0.00781,0.121094 -0.015625,0.171875 0,0.054688 0,0.101562 0,0.140625 0,0.09375 0,0.167969 0,0.21875 v 0.03125 C 8.582031,-3.785156 8.578125,-3.757812 8.578125,-3.75 v 0.15625 c 0,0.042969 -0.011719,0.089844 -0.03125,0.140625 -0.117187,0.0625 -0.242187,0.117187 -0.375,0.15625 -0.15625,0 -0.296875,0.046875 -0.421875,0.140625 -0.1875,0.085938 -0.289062,0.132812 -0.296875,0.140625 0,0 -0.015625,0 -0.046875,0 L 7.390625,-3.03125 c 0,0.011719 -0.00781,0.015625 -0.015625,0.015625 -0.054688,0.085937 -0.078125,0.183594 -0.078125,0.296875 0,0.023438 0.00781,0.03125 0.03125,0.03125 0,0.023438 0,0.042969 0,0.0625 0.00781,0.023438 0.015625,0.046875 0.015625,0.078125 l -0.03125,0.15625 0.015625,0.09375 -0.015625,0.0625 c 0,0.074219 0.015625,0.136719 0.046875,0.1875 0,0.023437 -0.00781,0.042969 -0.015625,0.0625 -0.011719,0.011719 -0.015625,0.023437 -0.015625,0.03125 0,0.023437 0.015625,0.046875 0.046875,0.078125 l -0.015625,0.265625 c 0.019531,0.0625 0.03125,0.132813 0.03125,0.203125 0.070313,0.042969 0.148437,0.074219 0.234375,0.09375 0.050781,0 0.09375,0.00781 0.125,0.015625 0.082031,0.03125 0.171875,0.0625 0.265625,0.09375 0.09375,0.023437 0.175781,0.054687 0.25,0.09375 0.050781,0.011719 0.097656,0.015625 0.140625,0.015625 0.113281,0 0.1875,0.039062 0.21875,0.109375 0.00781,0.03125 0.03125,0.058594 0.0625,0.078125 0,0.023438 -0.011719,0.039062 -0.03125,0.046875 V -0.78125 L 8.640625,-0.765625 8.609375,-0.65625 H 8.59375 c 0,0.03125 -0.00781,0.070312 -0.015625,0.109375 0,0.042969 0,0.074219 0,0.09375 0,0.011719 -0.011719,0.023437 -0.03125,0.03125 -0.011719,0.011719 -0.015625,0.023437 -0.015625,0.03125 V -0.34375 L 8.5,-0.3125 8.515625,-0.28125 8.484375,-0.1875 c -0.03125,0.042969 -0.054687,0.078125 -0.0625,0.109375 -0.011719,0.08203125 -0.058594,0.125 -0.140625,0.125 -0.023438,0 -0.046875,-0.0078125 -0.078125,-0.015625 -0.023437,0 -0.054687,0 -0.09375,0 -0.09375,0.0078125 -0.148437,0.0195312 -0.15625,0.03125 -0.011719,0.0078125 -0.023437,0.015625 -0.03125,0.015625 -0.042969,0 -0.078125,0 -0.109375,0 -0.011719,0 -0.023438,-0.0078125 -0.03125,-0.015625 0,-0.0117188 0,-0.015625 0,-0.015625 -0.011719,0 -0.023438,0.0039062 -0.03125,0.015625 -0.074219,0 -0.125,-0.0078125 -0.15625,-0.015625 -0.023438,0 -0.039062,0 -0.046875,0 C 7.453125,0.0234375 7.359375,0.0078125 7.265625,0 7.179688,-0.0195312 7.109375,-0.0351562 7.046875,-0.046875 H 6.953125 L 6.75,-0.0625 H 6.703125 c -0.074219,0 -0.148437,-0.0078125 -0.21875,-0.03125 -0.03125,-0.007812 -0.085937,-0.015625 -0.15625,-0.015625 L 6.21875,-0.09375 c 0,-0.007812 -0.00781,-0.015625 -0.015625,-0.015625 -0.011719,0 -0.027344,0 -0.046875,0 -0.042969,0 -0.101562,0 -0.171875,0 H 5.875 c -0.304688,0.03125 -0.480469,0.0546875 -0.53125,0.0625 -0.054688,0.0117188 -0.117188,0.0234375 -0.1875,0.03125 -0.0625,0.01171875 -0.125,0.0234375 -0.1875,0.046875 -0.03125,0 -0.070312,0 -0.109375,0 -0.03125,0 -0.058594,0.0039062 -0.078125,0.015625 -0.0625,0.0195312 -0.132812,0.03125 -0.203125,0.03125 -0.125,0.03125 -0.246094,0.050781 -0.359375,0.0625 -0.054688,0 -0.117188,0.019531 -0.1875,0.0625 -0.105469,0.039063 -0.164062,0.0625 -0.171875,0.0625 C 3.816406,0.265625 3.78125,0.269531 3.75,0.28125 3.644531,0.34375 3.53125,0.375 3.40625,0.375 c -0.03125,0 -0.054688,0 -0.0625,0 0,0.007812 -0.011719,0.015625 -0.03125,0.015625 z M 8.859375,-2.46875 Z m 0,0"
         style="stroke:none" />
    </g>
  </g>
</svg>
