<?xml version="1.0" encoding="UTF-8" standalone="no"?>
<svg
   xmlns:dc="http://purl.org/dc/elements/1.1/"
   xmlns:cc="http://creativecommons.org/ns#"
   xmlns:rdf="http://www.w3.org/1999/02/22-rdf-syntax-ns#"
   xmlns:svg="http://www.w3.org/2000/svg"
   xmlns="http://www.w3.org/2000/svg"
   id="svg8397"
   version="1.1"
   viewBox="0 0 20 28.474577"
   height="28.474577mm"
   width="20mm">
  <defs
     id="defs8391" />
  <metadata
     id="metadata8394">
    <rdf:RDF>
      <cc:Work
         rdf:about="">
        <dc:format>image/svg+xml</dc:format>
        <dc:type
           rdf:resource="http://purl.org/dc/dcmitype/StillImage" />
        <dc:title></dc:title>
      </cc:Work>
    </rdf:RDF>
  </metadata>
  <g
     transform="translate(-33.089286,-24.982951)"
     id="layer1">
    <g
       transform="matrix(3.6158192,0,0,3.6158192,32.863297,50.576171)"
       style="fill:#000000;fill-opacity:1"
       id="use65016-0">
      <path
         id="path28904"
         d="M 3.296875,-4.015625 C 3.328125,-4.128906 3.375,-4.253906 3.4375,-4.390625 3.46875,-4.472656 3.492188,-4.550781 3.515625,-4.625 c 0.125,-0.375 0.25,-0.738281 0.375,-1.09375 0.00781,-0.03125 0.023437,-0.054688 0.046875,-0.078125 0.00781,-0.019531 0.019531,-0.039063 0.03125,-0.0625 0,-0.019531 0.00391,-0.039063 0.015625,-0.0625 0,-0.019531 0,-0.035156 0,-0.046875 0.03125,-0.0625 0.0625,-0.128906 0.09375,-0.203125 0.125,-0.21875 0.191406,-0.472656 0.203125,-0.765625 C 4.269531,-6.957031 4.257812,-6.972656 4.25,-6.984375 4.238281,-7.003906 4.226562,-7.019531 4.21875,-7.03125 4.207031,-7.039062 4.191406,-7.050781 4.171875,-7.0625 c -0.023437,0 -0.042969,-0.00391 -0.0625,-0.015625 -0.0625,0 -0.121094,0.023437 -0.171875,0.0625 -0.042969,0.03125 -0.078125,0.074219 -0.109375,0.125 -0.03125,0.023437 -0.058594,0.042969 -0.078125,0.0625 -0.1875,0.199219 -0.367188,0.414063 -0.53125,0.640625 -0.03125,0.042969 -0.074219,0.085938 -0.125,0.125 -0.042969,0.054688 -0.085938,0.101562 -0.125,0.140625 -0.074219,0.09375 -0.152344,0.1875 -0.234375,0.28125 C 2.648438,-5.554688 2.570312,-5.46875 2.5,-5.375 2.46875,-5.34375 2.429688,-5.3125 2.390625,-5.28125 2.378906,-5.257812 2.363281,-5.242188 2.34375,-5.234375 2.164062,-5.003906 1.984375,-4.78125 1.796875,-4.5625 1.609375,-4.351562 1.425781,-4.132812 1.25,-3.90625 c -0.054688,0.0625 -0.109375,0.121094 -0.171875,0.171875 -0.0625,0.054687 -0.121094,0.105469 -0.171875,0.15625 -0.023438,0.03125 -0.046875,0.070313 -0.078125,0.109375 -0.074219,0.105469 -0.152344,0.1875 -0.234375,0.25 -0.011719,0.011719 -0.023438,0.023438 -0.03125,0.03125 -0.09375,0.074219 -0.183594,0.15625 -0.265625,0.25 -0.023437,0.03125 -0.042969,0.0625 -0.0625,0.09375 C 0.179688,-2.757812 0.125,-2.6875 0.0625,-2.625 c 0,0.054688 0,0.101562 0,0.140625 0.0078125,0.03125 0.0195312,0.070313 0.03125,0.109375 0.226562,0.042969 0.484375,0.054688 0.765625,0.03125 0.28125,-0.019531 0.523437,-0.054688 0.734375,-0.109375 0.0625,0 0.140625,0 0.234375,0 0.050781,0.011719 0.101563,0.015625 0.15625,0.015625 0.050781,-0.00781 0.09375,-0.019531 0.125,-0.03125 0.019531,0 0.035156,0 0.046875,0 0.00781,0 0.019531,0.00781 0.03125,0.015625 -0.054688,0.1875 -0.121094,0.375 -0.203125,0.5625 -0.03125,0.085937 -0.0625,0.167969 -0.09375,0.25 -0.023437,0.085937 -0.042969,0.167969 -0.0625,0.25 0,0.023437 0,0.042969 0,0.0625 -0.042969,0.105469 -0.085937,0.210937 -0.125,0.3125 -0.03125,0.085937 -0.0625,0.164063 -0.09375,0.234375 C 1.578125,-0.675781 1.550781,-0.578125 1.53125,-0.484375 1.507812,-0.398438 1.484375,-0.3125 1.453125,-0.21875 1.441406,-0.164062 1.425781,-0.109375 1.40625,-0.046875 1.382812,0.046875 1.351562,0.140625 1.3125,0.234375 1.300781,0.253906 1.289062,0.273438 1.28125,0.296875 c -0.042969,0.09375 -0.0625,0.207031 -0.0625,0.34375 0.039062,0.050781 0.082031,0.101563 0.125,0.15625 0.101562,0 0.1875,-0.027344 0.25,-0.078125 C 1.664062,0.675781 1.726562,0.625 1.78125,0.5625 1.800781,0.539062 1.816406,0.523438 1.828125,0.515625 1.878906,0.460938 1.929688,0.414062 1.984375,0.375 c 0.125,-0.117188 0.238281,-0.234375 0.34375,-0.359375 0.019531,-0.0390625 0.039063,-0.0703125 0.0625,-0.09375 0.039063,-0.0625 0.082031,-0.117187 0.125,-0.171875 C 2.734375,-0.46875 2.9375,-0.695312 3.125,-0.9375 3.175781,-1.007812 3.238281,-1.078125 3.3125,-1.140625 3.382812,-1.203125 3.445312,-1.269531 3.5,-1.34375 3.632812,-1.507812 3.769531,-1.671875 3.90625,-1.828125 4.050781,-2.003906 4.195312,-2.1875 4.34375,-2.375 4.35156,-2.394531 4.375,-2.410156 4.40625,-2.421875 c 0.019531,-0.00781 0.035156,-0.023437 0.046875,-0.046875 0.113281,-0.144531 0.226563,-0.296875 0.34375,-0.453125 0.03125,-0.039063 0.0625,-0.085937 0.09375,-0.140625 0.03125,-0.03125 0.0625,-0.0625 0.09375,-0.09375 0.039063,-0.03125 0.078125,-0.066406 0.109375,-0.109375 0.019531,-0.019531 0.039062,-0.050781 0.0625,-0.09375 0.082031,-0.113281 0.164062,-0.238281 0.25,-0.375 0.019531,-0.039063 0.039062,-0.082031 0.0625,-0.125 0.03125,-0.082031 0.070312,-0.15625 0.125,-0.21875 0,-0.00781 -0.00781,-0.019531 -0.015625,-0.03125 0,-0.00781 0,-0.015625 0,-0.015625 0,0 -0.00781,-0.00391 -0.015625,-0.015625 0,-0.00781 -0.00781,-0.015625 -0.015625,-0.015625 0,-0.00781 -0.00781,-0.019531 -0.015625,-0.03125 0,0 -0.00781,-0.00391 -0.015625,-0.015625 -0.023437,0 -0.046875,0 -0.078125,0 -0.023438,0 -0.046875,0.00781 -0.078125,0.015625 C 5.335938,-4.207031 5.320312,-4.226562 5.3125,-4.25 5.28125,-4.269531 5.234375,-4.28125 5.171875,-4.28125 c -0.054687,-0.00781 -0.101563,-0.00781 -0.140625,0 -0.0625,0.011719 -0.125,0.023438 -0.1875,0.03125 -0.074219,0.011719 -0.148438,0.027344 -0.21875,0.046875 -0.054688,0 -0.105469,0.00781 -0.15625,0.015625 -0.054688,0 -0.109375,0 -0.171875,0 -0.3125,0.09375 -0.648437,0.152344 -1,0.171875 z m 0,0"
         style="stroke:none" />
    </g>
  </g>
</svg>
